<?xml version="1.0" encoding="utf-8"?>
<!-- Generator: Adobe Illustrator 17.0.0, SVG Export Plug-In . SVG Version: 6.00 Build 0)  -->
<!DOCTYPE svg PUBLIC "-//W3C//DTD SVG 1.1//EN" "http://www.w3.org/Graphics/SVG/1.1/DTD/svg11.dtd">
<svg version="1.1"
	 id="svg8042" xmlns:dc="http://purl.org/dc/elements/1.1/" xmlns:cc="http://web.resource.org/cc/" xmlns:rdf="http://www.w3.org/1999/02/22-rdf-syntax-ns#" xmlns:svg="http://www.w3.org/2000/svg" xmlns:sodipodi="http://sodipodi.sourceforge.net/DTD/sodipodi-0.dtd" xmlns:inkscape="http://www.inkscape.org/namespaces/inkscape" inkscape:output_extension="org.inkscape.output.svg.inkscape" sodipodi:docname="sweden.svg" sodipodi:docbase="/home/jens/Desktop" inkscape:version="0.45.1" sodipodi:version="0.32"
	 xmlns="http://www.w3.org/2000/svg" xmlns:xlink="http://www.w3.org/1999/xlink" x="0px" y="0px" width="477px" height="979px"
	 viewBox="0 0 477 979" enable-background="new 0 0 477 979" xml:space="preserve">
<sodipodi:namedview  inkscape:cy="600" inkscape:cx="386.27044" inkscape:zoom="0.25" objecttolerance="10" guidetolerance="10" gridtolerance="10000" borderopacity="1.0" bordercolor="#666666" pagecolor="#ffffff" id="base" inkscape:window-y="50" inkscape:window-x="435" inkscape:window-height="594" inkscape:window-width="822" inkscape:current-layer="layer1" inkscape:pageopacity="0.0" inkscape:document-units="px" inkscape:pageshadow="2">
	</sodipodi:namedview>
<g id="layer1" transform="translate(-74.5,-62.362182)" inkscape:label="Layer 1" inkscape:groupmode="layer">
	<path id="path8120" fill="none" stroke="#999999" d="M455,64.362L455,64.362z"/>
	<path id="path8122" fill="#999999" stroke="#999999" d="M440,67.362l5,15l-6,13l-6,6l4,8l-2,5l-21-9l-14,2l-7-4l-8,1l2,16l-5,22
		l-21-9l-13,12l-9,23l-10,5l-1,9l6,8l-1,17l-15,11l-9,17l-12,10v14v7l-13,2l-14-2l-1,21l-9,34l2,7l-5,4l-2,9l-29,36l15,8l-1,20l-5,9
		l-4,4l-24-11l-13,7c0,0-11,12-19,22s-7,4-7,4l2,11l-8,12l3,19l-7,6l1,12l-7,10l3,20l-7,46l6,12l2,1l11,16l-2.5,10.5l-4.5,0.5
		l-2.5,7.5l-17,0.5l6.5,33.5l2.5,3l-0.5,12l-6.5,6l1,10.5l-19,17l-7-3.5l-3.5,2.5l2,7.5l-1.5,6.5l-7.5,1.5l-2.5,6l3,21l-4,5v9.5
		l-4,2l-5,9l-8,0.5l1.5-13l-2-6l-9.5,3.5l-1.5,50l3,1.5l2.5-6.5l-1.5,8l6.5-4.5l3.5,2.5l-8,9l-4,6l4,7.5l2-4.5l4,2l5-2l-8,17.5l4,6
		l3.5,14l-4.5,10l1.5,10.5l4.5-5.5l2.5,1.5l-1.5,14.5l6,14l4.5,10.5l6.5,19l7,1l2,8l-5,6.5l-11.5-0.5l7.5,15.5l-13-6l8.5,33l2.5,3.5
		l-1,5l7,6l-0.5,4l-10,1l3.5,16l5.5,0.5l12,8l4-4l3,1l4-3l14.5,2l2.5,3l6,0.5l8.5-10.5l-6-13.5l4-11.5l5-6l4,1.5l4.5-8.5l7.5,4.5
		l1.5-4l-2.5-5l18,2.5l12.5,2l10.5-3.5l3,5.5l1,4l8.5-6l10.5-27l9.5-13.5l5.5-20.5l4-2l-4-7.5l1.5-7.5l6-5.5l2.5-24.5l5.5-6l2-13.5
		l4-24l-5.5-7.5l9.5-3.5l2-4l-4-5h8l12-7l21-6.5l22-6l10.5-14l9-13l3-15.5l-12,0.5l14.5-14l8.5-9l-9.5-8l-5-20l-10-13.5l-13.5-7.5
		l-1.5-12l-12.5-2l-11-1l-5-23l3-34l-2.5-9l3.5-7.5l8,2.5l-1-14.5l8.5-27l-3.5-8.5l-1.5-6v-8l4.5,7l4.5,3l3.5-6l9-6l14-20l3.5-14.5
		l9-15l6.5,4.5l12-10.5l7.5-10l5,8.5l6-6l-2-2.5l12.5-9l19-12l11-24.5l18.5-20.5l-12-14.5l-2-11.5l18-22.5l-5.5-12l10.5-8.5l11-14
		l8.5-10l15.5,1l8.5-6l18.5-0.5l4.5-3.5l-5-17.5l-9-10.5l-1-14.5l7.5-8l-1.5-24l-10.5-18.5l0.5-8l5.5-1.5l-2-12l-7-2l0.5-8l2-1.5
		l-2.5-13.5l1.5-8l3-3l-8-15l-4.5-0.5l-2.5-9.5l-16.5-13l-9-0.5l-6-8.5l-4-2.5l-4-5l-3.5-0.5v-6l-8.5-6.5l-7-1l1-5.5l-4-12.5l-2-1.5
		l-2.5,5.5L440,67.362z"/>
</g>
</svg>
